<svg width="28" height="28" viewBox="0 0 28 28" fill="none" xmlns="http://www.w3.org/2000/svg">
<path d="M13.698 27.4C11.8071 27.4 10.0282 27.0414 8.36133 26.3243C6.69422 25.6072 5.24322 24.632 4.00833 23.3987C2.77322 22.1653 1.79644 20.7143 1.078 19.0457C0.359333 17.377 0 15.5971 0 13.706C0 11.8111 0.359333 10.031 1.078 8.36567C1.79644 6.70011 2.77256 5.24867 4.00633 4.01133C5.24011 2.774 6.69156 1.79611 8.36067 1.07767C10.0296 0.359223 11.8098 0 13.7013 0C15.5927 0 17.3726 0.359223 19.041 1.07767C20.7097 1.79611 22.1607 2.774 23.394 4.01133C24.6276 5.24867 25.6036 6.70067 26.322 8.36733C27.0407 10.034 27.4 11.8148 27.4 13.7097C27.4 15.6008 27.041 17.3798 26.323 19.0467C25.605 20.7138 24.6284 22.1648 23.3933 23.3997C22.1582 24.6348 20.7063 25.6102 19.0377 26.326C17.369 27.042 15.5891 27.4 13.698 27.4ZM13.702 25.2167C16.9124 25.2167 19.6341 24.101 21.867 21.8697C24.1001 19.6383 25.2167 16.9178 25.2167 13.708C25.2167 10.4909 24.0994 7.76589 21.865 5.533C19.6308 3.29989 16.9084 2.18333 13.698 2.18333C10.4876 2.18333 7.76589 3.29989 5.533 5.533C3.29989 7.76589 2.18333 10.4896 2.18333 13.704C2.18333 16.9184 3.30056 19.6408 5.535 21.871C7.76922 24.1014 10.4916 25.2167 13.702 25.2167ZM13.701 21.979C11.3983 21.979 9.444 21.175 7.838 19.567C6.232 17.9588 5.429 16.0053 5.429 13.7067C5.429 11.4078 6.23167 9.45344 7.837 7.84367C9.44256 6.23389 11.3966 5.429 13.699 5.429C16.0017 5.429 17.9573 6.23356 19.566 7.84267C21.1747 9.45178 21.979 11.4058 21.979 13.7047C21.979 16.0036 21.175 17.9573 19.567 19.566C17.9588 21.1747 16.0034 21.979 13.701 21.979ZM13.699 19.7957C15.393 19.7957 16.8312 19.2047 18.0137 18.0227C19.1963 16.8409 19.7877 15.403 19.7877 13.709C19.7877 12.015 19.1967 10.5754 18.0147 9.39033C16.8329 8.205 15.395 7.61233 13.701 7.61233C12.007 7.61233 10.5688 8.205 9.38633 9.39033C8.20367 10.5754 7.61233 12.015 7.61233 13.709C7.61233 15.403 8.20333 16.8409 9.38533 18.0227C10.5671 19.2047 12.005 19.7957 13.699 19.7957ZM13.697 16.55C12.9126 16.55 12.2419 16.2723 11.685 15.717C11.1283 15.1619 10.85 14.492 10.85 13.7073C10.85 12.9229 11.1293 12.2506 11.688 11.6903C12.2467 11.1301 12.9183 10.85 13.703 10.85C14.4874 10.85 15.1581 11.1299 15.715 11.6897C16.2717 12.2494 16.55 12.9224 16.55 13.7087C16.55 14.4947 16.2707 15.1648 15.712 15.719C15.1533 16.273 14.4817 16.55 13.697 16.55Z" fill="url(#paint0_linear_5549_4217)"/>
<defs>
<linearGradient id="paint0_linear_5549_4217" x1="38.7736" y1="13.9915" x2="5.96609" y2="27.9819" gradientUnits="userSpaceOnUse">
<stop stop-color="#E968FE"/>
<stop offset="1" stop-color="#602EE1"/>
</linearGradient>
</defs>
</svg>
