<svg width="32" height="32" viewBox="0 0 32 32" fill="none" xmlns="http://www.w3.org/2000/svg">
<path d="M10.0394 21.9567H10.9242L20.1204 12.7805L19.2452 11.9005L10.0394 21.0815V21.9567ZM9.36304 23.3193C9.16731 23.3193 9.00484 23.2546 8.87564 23.1253C8.74631 22.9961 8.68164 22.8336 8.68164 22.6379V21.1015C8.68164 20.9191 8.71897 20.7409 8.79364 20.5669C8.86831 20.3928 8.96691 20.2444 9.08944 20.1219L20.172 9.05451C20.2819 8.94145 20.4142 8.85331 20.5688 8.79011C20.7235 8.72691 20.884 8.69531 21.0504 8.69531C21.2034 8.69531 21.3564 8.72691 21.5094 8.79011C21.6625 8.85331 21.8038 8.93985 21.9334 9.04971L22.9712 10.0731C23.0944 10.2027 23.1843 10.3448 23.2408 10.4995C23.2974 10.6542 23.3256 10.8096 23.3256 10.9657C23.3256 11.122 23.294 11.28 23.2308 11.4397C23.1676 11.5994 23.0811 11.7358 22.9712 11.8489L11.8886 22.9115C11.7628 23.034 11.6136 23.1326 11.4412 23.2073C11.2688 23.282 11.0914 23.3193 10.909 23.3193H9.36304ZM19.6852 12.3357L19.2452 11.9005L20.1204 12.7805L19.6852 12.3357Z" fill="black"/>
</svg>
