<svg width="24" height="24" viewBox="0 0 24 24" fill="none" xmlns="http://www.w3.org/2000/svg">
<path d="M4.55286 21.1487C4.09286 21.1487 3.69403 20.9798 3.35636 20.642C3.01853 20.3043 2.84961 19.9055 2.84961 19.4455V4.553C2.84961 4.09133 3.01853 3.69108 3.35636 3.35225C3.69403 3.01325 4.09286 2.84375 4.55286 2.84375H11.1584C11.3987 2.84375 11.6007 2.92717 11.7644 3.094C11.928 3.261 12.0099 3.46508 12.0099 3.70625C12.0099 3.94758 11.928 4.14908 11.7644 4.31075C11.6007 4.47225 11.3987 4.553 11.1584 4.553H4.55286V19.4455H11.1584C11.3987 19.4455 11.6007 19.5277 11.7644 19.6922C11.928 19.8567 12.0099 20.0598 12.0099 20.3015C12.0099 20.5432 11.928 20.7448 11.7644 20.9062C11.6007 21.0679 11.3987 21.1487 11.1584 21.1487H4.55286ZM17.8909 12.851H9.81486C9.57453 12.851 9.37253 12.7687 9.20886 12.604C9.04519 12.4395 8.96336 12.2364 8.96336 11.9948C8.96336 11.7532 9.04519 11.5517 9.20886 11.39C9.37253 11.2283 9.57453 11.1475 9.81486 11.1475H17.8409L15.9176 9.22425C15.7476 9.05342 15.6668 8.85333 15.6751 8.624C15.6834 8.3945 15.7726 8.19575 15.9426 8.02775C16.1124 7.85592 16.3149 7.771 16.5499 7.773C16.7847 7.775 16.9884 7.86092 17.1611 8.03075L20.5579 11.4275C20.7237 11.5988 20.8066 11.7981 20.8066 12.0252C20.8066 12.2524 20.7237 12.451 20.5579 12.621L17.1861 15.9927C17.0194 16.1626 16.8214 16.2443 16.5919 16.238C16.3622 16.2317 16.1592 16.1436 15.9829 15.9737C15.8194 15.8037 15.7365 15.6009 15.7344 15.3652C15.7322 15.1294 15.8183 14.9261 15.9926 14.7552L17.8909 12.851Z" fill="black"/>
</svg>
