<svg width="18" height="18" viewBox="0 0 18 18" fill="none" xmlns="http://www.w3.org/2000/svg">
<path d="M6.51465 0.5C8.18519 0.500093 9.58907 1.08316 10.7559 2.25781C11.924 3.43371 12.5029 4.84039 12.5029 6.50586C12.5029 7.17439 12.3981 7.81055 12.1895 8.41699C11.9813 9.02202 11.6681 9.59309 11.2461 10.1309L10.9707 10.4814L11.2871 10.7949L17.3008 16.7588L17.3037 16.7607C17.374 16.8296 17.4082 16.9065 17.4082 17.0234C17.4081 17.1114 17.3886 17.1783 17.3477 17.2373L17.2998 17.2939L17.2979 17.2959C17.221 17.3735 17.1398 17.4082 17.0244 17.4082C16.9097 17.4082 16.8393 17.374 16.7754 17.3057L16.7695 17.2998L16.7627 17.2939L10.7744 11.3105L10.4482 10.9854L10.0977 11.2832C9.70744 11.6144 9.2556 11.8848 8.73926 12.0928L8.51367 12.1787C7.90718 12.3943 7.25415 12.5039 6.55176 12.5039C4.85092 12.5039 3.42962 11.9191 2.25684 10.7451C1.082 9.56889 0.500047 8.16382 0.5 6.50195C0.5 4.84019 1.08247 3.43511 2.25879 2.25879C3.43444 1.08299 4.84368 0.5 6.51465 0.5ZM6.52832 1.20312C5.1483 1.20322 3.94862 1.66088 2.95312 2.56836L2.75586 2.75586C1.72464 3.7868 1.20312 5.04505 1.20312 6.50195C1.20317 7.95877 1.7251 9.21612 2.75586 10.2471C3.78805 11.2794 5.05515 11.7997 6.52832 11.7998C7.98953 11.7998 9.24577 11.2784 10.2666 10.2451C11.2855 9.21374 11.7998 7.95681 11.7998 6.50195C11.7998 5.04685 11.2853 3.78923 10.2656 2.75781C9.24443 1.72472 7.98845 1.20312 6.52832 1.20312Z" fill="#AAAAAA" stroke="#AAAAAA"/>
</svg>
