<svg width="32" height="32" viewBox="0 0 32 32" fill="none" xmlns="http://www.w3.org/2000/svg">
<path d="M15.999 18.3965C17.3601 18.3965 18.7058 18.5653 20.0361 18.9023C21.2084 19.1993 22.4306 19.6122 23.7031 20.1426L24.252 20.377C24.9017 20.6659 25.4141 21.0865 25.8018 21.6396C26.1766 22.1749 26.3749 22.827 26.375 23.6211V24.6992C26.375 25.1901 26.2062 25.5984 25.8555 25.9502C25.5064 26.3002 25.0959 26.4697 24.5957 26.4697H7.40625C6.90874 26.4697 6.5 26.3001 6.15234 25.9502C5.80306 25.5985 5.63477 25.1906 5.63477 24.6992V23.6211C5.63484 22.8313 5.83204 22.1792 6.20801 21.6416H6.20898C6.59957 21.0828 7.10004 20.6603 7.71777 20.3691C9.19358 19.7078 10.6055 19.2145 11.9541 18.8867C13.2985 18.5599 14.6468 18.3965 15.999 18.3965ZM15.9971 19.6758C14.705 19.6758 13.4447 19.804 12.2178 20.0615C10.9764 20.3221 9.65543 20.8003 8.25586 21.4863H8.25488C7.85159 21.6846 7.52742 21.9882 7.28223 22.3799C7.03618 22.7733 6.90629 23.2006 6.90625 23.6533V25.1992H25.0957V23.6533C25.0957 23.1946 24.9565 22.7638 24.6963 22.3701C24.4417 21.9849 24.1159 21.6852 23.7178 21.4883L23.7119 21.4854C22.2857 20.8002 20.9653 20.3231 19.7529 20.0625C18.5519 19.8044 17.2993 19.6758 15.9971 19.6758ZM15.999 5.96484C17.4086 5.96484 18.526 6.40827 19.3945 7.27441L19.3955 7.27539C20.2636 8.14118 20.708 9.25682 20.708 10.666C20.708 12.0754 20.2638 13.1908 19.3955 14.0557C18.5269 14.9208 17.409 15.3633 15.999 15.3633C14.589 15.3633 13.4739 14.9202 12.6094 14.0557C11.7447 13.1909 11.3018 12.0759 11.3018 10.666C11.3018 9.25606 11.7445 8.14013 12.6094 7.27441C13.4739 6.40866 14.5892 5.96486 15.999 5.96484ZM16.002 7.23633C15.0355 7.23643 14.2052 7.5567 13.5498 8.20996H13.5488C12.8935 8.86382 12.5723 9.6939 12.5723 10.6602C12.5723 11.6282 12.8927 12.46 13.5469 13.1152C14.2011 13.7708 15.032 14.0928 15.999 14.0928C16.9657 14.0928 17.7967 13.7721 18.4521 13.1182V13.1172C19.1076 12.4625 19.4287 11.6315 19.4287 10.6641C19.4286 9.6954 19.1089 8.86385 18.4541 8.20996C17.7997 7.55639 16.9686 7.23633 16.002 7.23633Z" fill="url(#paint0_linear_5178_3659)" stroke="url(#paint1_linear_5178_3659)"/>
<defs>
<linearGradient id="paint0_linear_5178_3659" x1="35.8989" y1="16.4463" x2="9.95604" y2="27.6301" gradientUnits="userSpaceOnUse">
<stop stop-color="#E968FE"/>
<stop offset="1" stop-color="#602EE1"/>
</linearGradient>
<linearGradient id="paint1_linear_5178_3659" x1="35.8989" y1="16.4463" x2="9.95604" y2="27.6301" gradientUnits="userSpaceOnUse">
<stop stop-color="#E968FE"/>
<stop offset="1" stop-color="#602EE1"/>
</linearGradient>
</defs>
</svg>
