<svg width="15" height="15" viewBox="0 0 15 15" fill="none" xmlns="http://www.w3.org/2000/svg">
<path d="M6.29775 8.00725H0.85175C0.61125 8.00725 0.409166 7.92492 0.2455 7.76025C0.0818331 7.59575 0 7.39267 0 7.151C0 6.9095 0.0818331 6.70792 0.2455 6.54625C0.409166 6.38458 0.61125 6.30375 0.85175 6.30375H6.29775V0.85775C6.29775 0.61775 6.38008 0.414832 6.54475 0.248999C6.70925 0.082999 6.91233 0 7.154 0C7.3955 0 7.59708 0.082999 7.75875 0.248999C7.92042 0.414832 8.00125 0.61775 8.00125 0.85775V6.30375H13.4472C13.6872 6.30375 13.8902 6.38608 14.056 6.55075C14.222 6.71525 14.305 6.91833 14.305 7.16C14.305 7.4015 14.222 7.60308 14.056 7.76475C13.8902 7.92642 13.6872 8.00725 13.4472 8.00725H8.00125V13.4532C8.00125 13.6938 7.91892 13.8958 7.75425 14.0595C7.58975 14.2232 7.38667 14.305 7.145 14.305C6.9035 14.305 6.70192 14.2232 6.54025 14.0595C6.37858 13.8958 6.29775 13.6938 6.29775 13.4532V8.00725Z" fill="#602EE1"/>
</svg>
