<svg width="24" height="24" viewBox="0 0 24 24" fill="none" xmlns="http://www.w3.org/2000/svg">
<path d="M13.1061 11.9756L8.75285 7.62233C8.58285 7.45233 8.50202 7.25341 8.51035 7.02558C8.51868 6.79774 8.60785 6.59883 8.77785 6.42883C8.94785 6.25883 9.15093 6.17383 9.3871 6.17383C9.62327 6.17383 9.82635 6.25883 9.99635 6.42883L14.9404 11.3728C15.0317 11.4642 15.098 11.5595 15.1394 11.6588C15.1807 11.758 15.2014 11.8636 15.2014 11.9756C15.2014 12.0876 15.1807 12.1932 15.1394 12.2923C15.098 12.3917 15.0317 12.487 14.9404 12.5783L9.97135 17.5473C9.80135 17.7173 9.60243 17.7982 9.3746 17.7898C9.14677 17.7815 8.94785 17.6923 8.77785 17.5223C8.60785 17.3523 8.52285 17.1492 8.52285 16.9131C8.52285 16.6769 8.60785 16.4738 8.77785 16.3038L13.1061 11.9756Z" fill="black"/>
</svg>
