<svg width="24" height="24" viewBox="0 0 24 24" fill="none" xmlns="http://www.w3.org/2000/svg">
<path d="M11.9931 22.1487C10.6066 22.1487 9.29603 21.8822 8.06136 21.3492C6.82669 20.8162 5.74928 20.0886 4.82911 19.1663C3.90878 18.2441 3.18211 17.1667 2.64911 15.934C2.11611 14.7013 1.84961 13.3907 1.84961 12.0022C1.84961 10.5969 2.11611 9.28117 2.64911 8.055C3.18211 6.82867 3.90878 5.75442 4.82911 4.83225C5.74928 3.90992 6.82669 3.18125 8.06136 2.64625C9.29603 2.11125 10.6066 1.84375 11.9931 1.84375C13.3964 1.84375 14.7122 2.11125 15.9404 2.64625C17.1687 3.18125 18.2439 3.90992 19.1661 4.83225C20.0884 5.75442 20.8171 6.8285 21.3521 8.0545C21.8871 9.28033 22.1546 10.5952 22.1546 11.9992C22.1546 13.3897 21.8871 14.7013 21.3521 15.934C20.8171 17.1667 20.0884 18.2441 19.1661 19.1663C18.2439 20.0886 17.1687 20.8162 15.9404 21.3492C14.7122 21.8822 13.3964 22.1487 11.9931 22.1487ZM17.0861 9.71L18.8074 9.11L19.2514 7.516C18.6887 6.64067 17.994 5.89175 17.1674 5.26925C16.3407 4.64658 15.4056 4.17217 14.3621 3.846L12.7431 4.9175V6.653L17.0861 9.71ZM6.93486 9.71L11.2611 6.651V4.915L9.66386 3.846C8.61953 4.17133 7.68378 4.6455 6.85661 5.2685C6.02944 5.8915 5.33453 6.64067 4.77186 7.516L5.31586 9.11L6.93486 9.71ZM5.59086 17.6562L7.08486 17.4812L8.05411 15.8623L6.51586 11.1237L4.74686 10.5232L3.55286 11.4982C3.55286 12.6902 3.68519 13.7781 3.94986 14.7617C4.21453 15.7454 4.76153 16.7102 5.59086 17.6562ZM11.9991 20.4635C12.4451 20.4635 12.8963 20.4207 13.3526 20.335C13.8089 20.2495 14.2871 20.1438 14.7871 20.018L15.6001 18.2252L14.8001 16.8562H9.22511L8.42311 18.2252L9.24811 20.018C9.67744 20.1438 10.1318 20.2495 10.6111 20.335C11.0904 20.4207 11.5531 20.4635 11.9991 20.4635ZM9.36386 15.3682H14.5371L16.0501 10.8232L11.9991 7.916L7.87911 10.8232L9.36386 15.3682ZM18.4324 17.6562C19.245 16.7102 19.7837 15.7454 20.0484 14.7617C20.313 13.7781 20.4454 12.6902 20.4454 11.4982L19.2494 10.6733L17.5086 11.1233L15.9751 15.864L16.9134 17.4812L18.4324 17.6562Z" fill="black"/>
</svg>
