<svg width="24" height="24" viewBox="0 0 24 24" fill="none" xmlns="http://www.w3.org/2000/svg">
<path d="M5.55286 19.4472H9.14736V14.0009C9.14736 13.7606 9.22928 13.5586 9.39311 13.3949C9.55678 13.2311 9.75878 13.1492 9.99911 13.1492H13.9991C14.2394 13.1492 14.4414 13.2311 14.6051 13.3949C14.7689 13.5586 14.8509 13.7606 14.8509 14.0009V19.4472H18.4454V9.77692L11.9991 4.94167L5.55286 9.77692V19.4472ZM3.84961 19.4472V9.77492C3.84961 9.50626 3.90911 9.25184 4.02811 9.01167C4.14694 8.77134 4.31336 8.57192 4.52736 8.41342L10.9736 3.57417C11.2708 3.34634 11.6113 3.23242 11.9951 3.23242C12.3789 3.23242 12.7221 3.34634 13.0246 3.57417L19.4709 8.41342C19.6867 8.57192 19.8546 8.77134 19.9746 9.01167C20.0946 9.25184 20.1546 9.50626 20.1546 9.77492V19.4472C20.1546 19.9197 19.9883 20.3217 19.6556 20.6532C19.3229 20.9847 18.9195 21.1504 18.4454 21.1504H14.0649C13.8245 21.1504 13.6225 21.0686 13.4589 20.9049C13.2952 20.7413 13.2134 20.5392 13.2134 20.2987V14.7867H10.7849V20.2987C10.7849 20.5392 10.703 20.7413 10.5394 20.9049C10.3757 21.0686 10.1737 21.1504 9.93336 21.1504H5.55286C5.08036 21.1504 4.67836 20.9847 4.34686 20.6532C4.01536 20.3217 3.84961 19.9197 3.84961 19.4472Z" fill="#602EE1"/>
</svg>
