<svg width="20" height="20" viewBox="0 0 20 20" fill="none" xmlns="http://www.w3.org/2000/svg">
<path d="M9.60187 12.5998C10.5469 12.5998 11.3495 12.269 12.0095 11.6074C12.6695 10.9458 12.9995 10.1425 12.9995 9.19744C12.9995 8.25238 12.6687 7.44984 12.0071 6.78984C11.3455 6.12984 10.5421 5.79984 9.59707 5.79984C8.65201 5.79984 7.84947 6.13064 7.18947 6.79224C6.52947 7.45384 6.19947 8.25718 6.19947 9.20224C6.19947 10.1473 6.53027 10.9498 7.19187 11.6098C7.85347 12.2698 8.65681 12.5998 9.60187 12.5998ZM9.59587 11.3632C8.99387 11.3632 8.48341 11.1526 8.06447 10.7312C7.64554 10.3099 7.43607 9.79824 7.43607 9.19624C7.43607 8.59424 7.64674 8.08378 8.06807 7.66484C8.48941 7.24591 9.00107 7.03644 9.60307 7.03644C10.2051 7.03644 10.7155 7.24711 11.1345 7.66844C11.5534 8.08978 11.7629 8.60144 11.7629 9.20344C11.7629 9.80544 11.5522 10.3159 11.1309 10.7348C10.7095 11.1538 10.1979 11.3632 9.59587 11.3632ZM9.59947 15.3098C7.78347 15.3098 6.13174 14.8013 4.64427 13.7842C3.15681 12.7672 1.96461 11.4646 1.06767 9.87644C1.00794 9.76924 0.963205 9.65878 0.933472 9.54504C0.903605 9.43131 0.888672 9.31584 0.888672 9.19864C0.888672 9.08144 0.903605 8.96638 0.933472 8.85344C0.963205 8.74038 1.00794 8.63031 1.06767 8.52324C1.96461 6.93511 3.15681 5.63251 4.64427 4.61544C6.13174 3.59838 7.78347 3.08984 9.59947 3.08984C11.4155 3.08984 13.0672 3.59838 14.5547 4.61544C16.0421 5.63251 17.2343 6.93511 18.1313 8.52324C18.191 8.63044 18.2357 8.74091 18.2655 8.85464C18.2953 8.96838 18.3103 9.08384 18.3103 9.20104C18.3103 9.31824 18.2953 9.43331 18.2655 9.54624C18.2357 9.65931 18.191 9.76938 18.1313 9.87644C17.2343 11.4646 16.0421 12.7672 14.5547 13.7842C13.0672 14.8013 11.4155 15.3098 9.59947 15.3098ZM9.59647 13.9998C11.2118 13.9998 12.6945 13.5632 14.0447 12.6898C15.3948 11.8165 16.4232 10.6532 17.1299 9.19984C16.4232 7.74651 15.3958 6.58318 14.0477 5.70984C12.6994 4.83651 11.2177 4.39984 9.60247 4.39984C7.98714 4.39984 6.50441 4.83651 5.15427 5.70984C3.80414 6.58318 2.76907 7.74651 2.04907 9.19984C2.76907 10.6532 3.80314 11.8165 5.15127 12.6898C6.49954 13.5632 7.98127 13.9998 9.59647 13.9998Z" fill="black"/>
</svg>
