<svg width="24" height="24" viewBox="0 0 24 24" fill="none" xmlns="http://www.w3.org/2000/svg">
<path d="M10.4491 12.6242L11.9241 14.0992C12.0586 14.2326 12.2297 14.2992 12.4374 14.2992C12.6452 14.2992 12.8241 14.2326 12.9741 14.0992L16.2491 10.8242V12.0242C16.2491 12.2242 16.321 12.3951 16.4649 12.5367C16.6085 12.6784 16.7866 12.7492 16.9991 12.7492C17.1991 12.7492 17.3741 12.6773 17.5241 12.5335C17.6741 12.3898 17.7491 12.2117 17.7491 11.9992V8.99925C17.7491 8.79925 17.6741 8.62425 17.5241 8.47425C17.3741 8.32425 17.1991 8.24925 16.9991 8.24925H13.9741C13.7741 8.24925 13.6033 8.32425 13.4616 8.47425C13.3199 8.62425 13.2491 8.80342 13.2491 9.01175C13.2491 9.22008 13.321 9.39508 13.4649 9.53675C13.6085 9.67842 13.7866 9.74925 13.9991 9.74925H15.1741L12.4491 12.4992L10.9741 11.0242C10.8241 10.8742 10.6452 10.7992 10.4374 10.7992C10.2297 10.7992 10.0586 10.8742 9.92411 11.0242L6.87411 14.0742C6.72411 14.2242 6.64911 14.4037 6.64911 14.6125C6.64911 14.8212 6.72736 14.9931 6.88386 15.1282C7.02736 15.2756 7.20303 15.3492 7.41086 15.3492C7.61853 15.3492 7.78961 15.2742 7.92411 15.1242L10.4491 12.6242ZM4.55286 21.1487C4.09286 21.1487 3.69403 20.9798 3.35636 20.642C3.01853 20.3043 2.84961 19.9055 2.84961 19.4455V4.553C2.84961 4.09133 3.01853 3.69108 3.35636 3.35225C3.69403 3.01325 4.09286 2.84375 4.55286 2.84375H19.4454C19.907 2.84375 20.3073 3.01325 20.6461 3.35225C20.9851 3.69108 21.1546 4.09133 21.1546 4.553V19.4455C21.1546 19.9055 20.9851 20.3043 20.6461 20.642C20.3073 20.9798 19.907 21.1487 19.4454 21.1487H4.55286ZM4.55286 19.4455H19.4454V4.553H4.55286V19.4455Z" fill="black"/>
</svg>
