<svg width="24" height="24" viewBox="0 0 24 24" fill="none" xmlns="http://www.w3.org/2000/svg">
<path d="M11.9195 21.1487C9.53268 21.1487 7.48243 20.3499 5.76876 18.7522C4.05493 17.1546 3.09643 15.1831 2.89326 12.8377C2.8646 12.6134 2.9301 12.4164 3.08976 12.2467C3.24926 12.0771 3.45118 11.9902 3.69551 11.9862C3.92368 11.9822 4.1206 12.0571 4.28626 12.2107C4.45176 12.3642 4.55718 12.5613 4.60251 12.802C4.79785 14.6788 5.58485 16.2552 6.96351 17.5312C8.34201 18.8074 9.99376 19.4455 11.9188 19.4455C14.0156 19.4455 15.7933 18.7092 17.252 17.2365C18.7107 15.7638 19.44 13.9767 19.44 11.8752C19.44 9.82392 18.7036 8.09067 17.2308 6.6755C15.7578 5.2605 13.9871 4.553 11.9188 4.553C10.8173 4.553 9.78268 4.79842 8.81501 5.28925C7.84718 5.77992 7.0026 6.43233 6.28126 7.2465H7.99476C8.2201 7.2465 8.40743 7.32117 8.55676 7.4705C8.7061 7.61983 8.78076 7.80717 8.78076 8.0325C8.78076 8.261 8.7061 8.45008 8.55676 8.59975C8.40743 8.74942 8.2201 8.82425 7.99476 8.82425H4.28776C4.04326 8.82425 3.84018 8.74342 3.67851 8.58175C3.51701 8.42025 3.43626 8.21717 3.43626 7.9725V4.2905C3.43626 4.06533 3.5101 3.87908 3.65776 3.73175C3.80526 3.58442 3.99235 3.51075 4.21901 3.51075C4.44568 3.51075 4.63285 3.58442 4.78051 3.73175C4.92818 3.87908 5.00201 4.06533 5.00201 4.2905V6.095C5.88051 5.08617 6.9176 4.29208 8.11326 3.71275C9.30893 3.13342 10.5774 2.84375 11.9188 2.84375C13.1888 2.84375 14.3827 3.08208 15.5005 3.55875C16.6185 4.03542 17.5974 4.68492 18.4373 5.50725C19.2773 6.32958 19.9383 7.29133 20.4203 8.3925C20.9023 9.49367 21.1433 10.6792 21.1433 11.9492C21.1433 13.2192 20.9023 14.4132 20.4203 15.531C19.9383 16.6488 19.2773 17.6231 18.4373 18.4537C17.5974 19.2844 16.6185 19.9412 15.5005 20.4242C14.3827 20.9072 13.189 21.1487 11.9195 21.1487ZM12.8105 11.6507L15.6425 14.4255C15.8053 14.588 15.8868 14.7772 15.8868 14.993C15.8868 15.2088 15.8068 15.3962 15.6468 15.5552C15.4868 15.7172 15.3023 15.7982 15.0933 15.7982C14.8844 15.7982 14.7 15.7172 14.54 15.5552L11.4938 12.559C11.4024 12.4717 11.3381 12.3765 11.3008 12.2735C11.2634 12.1705 11.2448 12.0604 11.2448 11.9432V7.70425C11.2448 7.47892 11.3194 7.29258 11.4688 7.14525C11.6179 6.99792 11.805 6.92425 12.03 6.92425C12.2552 6.92425 12.4416 6.99792 12.5893 7.14525C12.7368 7.29258 12.8105 7.47892 12.8105 7.70425V11.6507Z" fill="black"/>
</svg>
