<svg width="24" height="24" viewBox="0 0 24 24" fill="none" xmlns="http://www.w3.org/2000/svg">
<path d="M11.998 13.9219C13.0082 13.9219 14.0066 14.0467 14.9941 14.2969C15.8668 14.5179 16.778 14.8259 17.7275 15.2217L18.1367 15.3965C18.604 15.6044 18.9709 15.9052 19.248 16.3008V16.2998C19.5124 16.6773 19.6542 17.1411 19.6543 17.7148V18.5234C19.6543 18.8582 19.5415 19.1325 19.3018 19.373C19.0636 19.6119 18.7876 19.7266 18.4453 19.7266H5.55273C5.21278 19.7265 4.9383 19.6127 4.70117 19.374C4.4623 19.1336 4.34962 18.8588 4.34961 18.5234V17.7148C4.34966 17.1445 4.49244 16.6812 4.75781 16.3018C5.03928 15.8991 5.39885 15.5949 5.84473 15.3857C6.94308 14.894 7.9933 14.5284 8.99414 14.2852C9.99281 14.0424 10.9942 13.9219 11.998 13.9219ZM11.9961 14.6309C11.0189 14.6309 10.0655 14.7279 9.13672 14.9229C8.19347 15.1209 7.19239 15.4831 6.13574 16.001H6.13477C5.80963 16.1608 5.54976 16.4058 5.35449 16.7178H5.35352C5.15751 17.0312 5.05273 17.3746 5.05273 17.7393V19.0234H18.9453V17.7393C18.9453 17.4148 18.8589 17.1088 18.6982 16.8271L18.625 16.708C18.4231 16.4024 18.1625 16.1614 17.8418 16.0029L17.8369 16L17.4365 15.8135C16.5117 15.3952 15.645 15.0971 14.8389 14.9238C13.9289 14.7283 12.981 14.6309 11.9961 14.6309ZM11.998 4.59766C13.0262 4.5977 13.8308 4.92026 14.4561 5.54395H14.457C15.0818 6.16707 15.4042 6.97052 15.4043 7.99805C15.4043 9.02592 15.082 9.82963 14.457 10.4521C13.8318 11.075 13.0265 11.3964 11.998 11.3965C10.9695 11.3965 10.1661 11.0744 9.54395 10.4521C8.92169 9.82979 8.59961 9.02641 8.59961 7.99805C8.59968 7.03411 8.88249 6.26752 9.43066 5.66211L9.54395 5.54297C10.1662 4.91987 10.9697 4.59766 11.998 4.59766ZM12 5.30078C11.2452 5.30086 10.5893 5.55209 10.0723 6.06738V6.06836C9.55523 6.58425 9.30279 7.23924 9.30273 7.99414C9.30273 8.75022 9.55415 9.40686 10.0703 9.92383C10.5865 10.4411 11.2426 10.6934 11.998 10.6934C12.6587 10.6933 13.2434 10.5011 13.7256 10.1074L13.9258 9.92578C14.4429 9.40925 14.6953 8.75281 14.6953 7.99707C14.6952 7.24047 14.4437 6.58346 13.9268 6.06738H13.9258C13.4096 5.55235 12.7545 5.30078 12 5.30078Z" fill="black" stroke="black"/>
</svg>
