<svg width="32" height="32" viewBox="0 0 32 32" fill="none" xmlns="http://www.w3.org/2000/svg">
<path d="M20.3551 19.9138C20.0387 19.9138 19.7611 19.7939 19.5224 19.5541C19.2838 19.3143 19.1644 19.0373 19.1644 18.7231V13.3661C19.1644 13.0497 19.2843 12.7721 19.5241 12.5334C19.7639 12.2948 20.0409 12.1754 20.3551 12.1754H23.6631C23.9796 12.1754 24.2571 12.2953 24.4958 12.5351C24.7344 12.7749 24.8538 13.0519 24.8538 13.3661V18.7231C24.8538 19.0396 24.7339 19.3171 24.4941 19.5558C24.2543 19.7944 23.9773 19.9138 23.6631 19.9138H20.3551ZM20.8791 18.1914H23.1391V13.9058H20.8791V18.1914ZM8.88645 18.1914H11.9798C12.2204 18.1914 12.4234 18.2737 12.5888 18.4381C12.7543 18.6028 12.8371 18.8076 12.8371 19.0524C12.8371 19.2973 12.7543 19.5021 12.5888 19.6668C12.4234 19.8314 12.2204 19.9138 11.9798 19.9138H8.33845C8.022 19.9138 7.74445 19.7939 7.50578 19.5541C7.26711 19.3143 7.14778 19.0373 7.14778 18.7231V16.4411C7.14778 16.1233 7.26767 15.8451 7.50745 15.6064C7.74723 15.3678 8.02423 15.2484 8.33845 15.2484H11.0984V13.8978H8.00711C7.75978 13.8978 7.55478 13.8144 7.39212 13.6478C7.22923 13.4811 7.14778 13.2758 7.14778 13.0318C7.14778 12.788 7.23111 12.5843 7.39778 12.4208C7.56423 12.2572 7.76934 12.1754 8.01311 12.1754H11.6464C11.9629 12.1754 12.2404 12.2953 12.4791 12.5351C12.7178 12.7749 12.8371 13.0519 12.8371 13.3661V15.6501C12.8371 15.9719 12.7172 16.2508 12.4774 16.4868C12.2377 16.7228 11.9607 16.8408 11.6464 16.8408H8.88645V18.1914ZM4.57978 27.0341C3.96423 27.0341 3.43056 26.8081 2.97878 26.3561C2.52678 25.9043 2.30078 25.3707 2.30078 24.7551V7.33412C2.30078 6.71856 2.52678 6.18489 2.97878 5.73311C3.43056 5.28111 3.96423 5.05511 4.57978 5.05511H9.34845V3.38845C9.34845 3.08023 9.45423 2.82189 9.66578 2.61345C9.87712 2.405 10.1372 2.30078 10.4461 2.30078C10.755 2.30078 11.0132 2.405 11.2208 2.61345C11.4281 2.82189 11.5318 3.08023 11.5318 3.38845V5.05511H20.4698V3.38845C20.4698 3.08378 20.5754 2.82634 20.7868 2.61612C20.9981 2.40589 21.259 2.30078 21.5694 2.30078C21.8801 2.30078 22.1397 2.405 22.3481 2.61345C22.5566 2.82189 22.6608 3.08023 22.6608 3.38845V5.05511H27.4218C28.0373 5.05511 28.571 5.28111 29.0228 5.73311C29.4748 6.18489 29.7008 6.71856 29.7008 7.33412V24.7551C29.7008 25.3707 29.4748 25.9043 29.0228 26.3561C28.571 26.8081 28.0373 27.0341 27.4218 27.0341H4.57978ZM4.81745 24.5174H15.0318V23.3508C15.0318 23.0761 15.125 22.846 15.3114 22.6604C15.4977 22.4747 15.7288 22.3818 16.0048 22.3818C16.2806 22.3818 16.5103 22.4747 16.6941 22.6604C16.8779 22.846 16.9698 23.0761 16.9698 23.3508V24.5174H27.1841V7.57978H16.9698V8.74645C16.9698 9.02111 16.8766 9.25123 16.6901 9.43678C16.5039 9.62234 16.2728 9.71511 15.9968 9.71511C15.721 9.71511 15.4912 9.62234 15.3074 9.43678C15.1237 9.25123 15.0318 9.02111 15.0318 8.74645V7.57978H4.81745V24.5174ZM15.9991 14.6551C15.6953 14.6551 15.4423 14.5521 15.2401 14.3461C15.0381 14.1403 14.9371 13.8856 14.9371 13.5818C14.9371 13.278 15.0387 13.025 15.2418 12.8228C15.4451 12.6208 15.6987 12.5198 16.0024 12.5198C16.3062 12.5198 16.5604 12.6213 16.7651 12.8244C16.97 13.0278 17.0724 13.2813 17.0724 13.5851C17.0724 13.8889 16.9694 14.1431 16.7634 14.3478C16.5577 14.5527 16.3029 14.6551 15.9991 14.6551ZM15.9991 19.5698C15.6953 19.5698 15.4423 19.4668 15.2401 19.2608C15.0381 19.0548 14.9371 18.7999 14.9371 18.4961C14.9371 18.1926 15.0387 17.9397 15.2418 17.7374C15.4451 17.5352 15.6987 17.4341 16.0024 17.4341C16.3062 17.4341 16.5604 17.5358 16.7651 17.7391C16.97 17.9424 17.0724 18.1959 17.0724 18.4994C17.0724 18.8032 16.9694 19.0576 16.7634 19.2624C16.5577 19.4673 16.3029 19.5698 15.9991 19.5698Z" fill="url(#paint0_linear_5178_3193)"/>
<defs>
<linearGradient id="paint0_linear_5178_3193" x1="41.0744" y1="14.9306" x2="9.37533" y2="29.9058" gradientUnits="userSpaceOnUse">
<stop stop-color="#E968FE"/>
<stop offset="1" stop-color="#602EE1"/>
</linearGradient>
</defs>
</svg>
