<svg width="32" height="32" viewBox="0 0 32 32" fill="none" xmlns="http://www.w3.org/2000/svg">
<path d="M15.9915 29.5323C14.1428 29.5323 12.3954 29.177 10.7491 28.4663C9.10291 27.7557 7.66635 26.7854 6.43946 25.5557C5.21235 24.3261 4.24346 22.8895 3.5328 21.246C2.82213 19.6024 2.4668 17.855 2.4668 16.0037C2.4668 14.1299 2.82213 12.3755 3.5328 10.7407C4.24346 9.10554 5.21235 7.67321 6.43946 6.44365C7.66635 5.21387 9.10291 4.24232 10.7491 3.52898C12.3954 2.81565 14.1428 2.45898 15.9915 2.45898C17.8626 2.45898 19.6169 2.81565 21.2545 3.52898C22.8922 4.24232 24.3259 5.21387 25.5555 6.44365C26.7852 7.67321 27.7568 9.10532 28.4701 10.74C29.1835 12.3744 29.5401 14.1277 29.5401 15.9997C29.5401 17.8537 29.1835 19.6024 28.4701 21.246C27.7568 22.8895 26.7852 24.3261 25.5555 25.5557C24.3259 26.7854 22.8922 27.7557 21.2545 28.4663C19.6169 29.177 17.8626 29.5323 15.9915 29.5323ZM22.7821 12.9473L25.0771 12.1473L25.6691 10.022C24.9189 8.85487 23.9927 7.85632 22.8905 7.02632C21.7882 6.19609 20.5415 5.56354 19.1501 5.12865L16.9915 6.55732V8.87132L22.7821 12.9473ZM9.24713 12.9473L15.0155 8.86865V6.55398L12.8858 5.12865C11.4934 5.56243 10.2457 6.19465 9.1428 7.02532C8.03991 7.85598 7.11335 8.85487 6.36313 10.022L7.08846 12.1473L9.24713 12.9473ZM7.45513 23.5423L9.44713 23.309L10.7395 21.1503L8.68846 14.8323L6.3298 14.0317L4.7378 15.3317C4.7378 16.921 4.91424 18.3714 5.26713 19.683C5.62002 20.9945 6.34935 22.281 7.45513 23.5423ZM15.9995 27.2853C16.5941 27.2853 17.1957 27.2282 17.8041 27.114C18.4126 27 19.0501 26.8591 19.7168 26.6913L20.8008 24.301L19.7341 22.4757H12.3008L11.2315 24.301L12.3315 26.6913C12.9039 26.8591 13.5097 27 14.1488 27.114C14.7879 27.2282 15.4048 27.2853 15.9995 27.2853ZM12.4858 20.4917H19.3835L21.4008 14.4317L15.9995 10.5553L10.5061 14.4317L12.4858 20.4917ZM24.5771 23.5423C25.6607 22.281 26.3789 20.9945 26.7318 19.683C27.0847 18.3714 27.2611 16.921 27.2611 15.3317L25.6665 14.2317L23.3455 14.8317L21.3008 21.1527L22.5518 23.309L24.5771 23.5423Z" fill="url(#paint0_linear_5178_3645)"/>
<defs>
<linearGradient id="paint0_linear_5178_3645" x1="40.7781" y1="16.2837" x2="8.36176" y2="30.1073" gradientUnits="userSpaceOnUse">
<stop stop-color="#E968FE"/>
<stop offset="1" stop-color="#602EE1"/>
</linearGradient>
</defs>
</svg>
