<svg width="32" height="32" viewBox="0 0 32 32" fill="none" xmlns="http://www.w3.org/2000/svg">
<path d="M10.8784 23.6732L16.0001 20.6115L21.1218 23.7065L19.7458 17.9085L24.2501 13.9882L18.3111 13.4708L16.0001 7.9985L13.6891 13.4455L7.7501 13.9548L12.2544 17.8672L10.8784 23.6732ZM16.0001 23.2558L9.7841 27.0048C9.57454 27.1319 9.35643 27.1886 9.12977 27.1748C8.90332 27.1611 8.70165 27.0906 8.52476 26.9635C8.34788 26.8366 8.21654 26.6723 8.13076 26.4705C8.04521 26.2689 8.02721 26.0411 8.07676 25.7868L9.7181 18.7042L4.23576 13.9215C4.03665 13.7502 3.9151 13.5567 3.8711 13.3412C3.8271 13.1258 3.83265 12.9159 3.88776 12.7115C3.93754 12.5071 4.05221 12.3345 4.23176 12.1938C4.4111 12.0529 4.62788 11.9714 4.8821 11.9492L12.1311 11.3158L14.9391 4.62517C15.0387 4.39339 15.1893 4.22083 15.3911 4.1075C15.5927 3.99417 15.7957 3.9375 16.0001 3.9375C16.2045 3.9375 16.4075 3.99417 16.6091 4.1075C16.8109 4.22083 16.9615 4.39339 17.0611 4.62517L19.8691 11.3158L27.1261 11.9492C27.375 11.9714 27.5891 12.0529 27.7684 12.1938C27.948 12.3345 28.0627 12.5071 28.1124 12.7115C28.1675 12.9159 28.1731 13.1258 28.1291 13.3412C28.0851 13.5567 27.9635 13.7502 27.7644 13.9215L22.2821 18.7042L23.9234 25.7868C23.973 26.0411 23.955 26.2689 23.8694 26.4705C23.7837 26.6723 23.6523 26.8366 23.4754 26.9635C23.2985 27.0906 23.0969 27.1611 22.8704 27.1748C22.6438 27.1886 22.4257 27.1319 22.2161 27.0048L16.0001 23.2558Z" fill="url(#paint0_linear_5178_3652)"/>
<defs>
<linearGradient id="paint0_linear_5178_3652" x1="38.2521" y1="15.8044" x2="9.55536" y2="28.6091" gradientUnits="userSpaceOnUse">
<stop stop-color="#E968FE"/>
<stop offset="1" stop-color="#602EE1"/>
</linearGradient>
</defs>
</svg>
