<svg width="21" height="19" viewBox="0 0 21 19" fill="none" xmlns="http://www.w3.org/2000/svg">
<path d="M13.5408 13.2098C13.3034 13.2098 13.0953 13.1198 12.9163 12.94C12.7373 12.7602 12.6478 12.5524 12.6478 12.3168V8.299C12.6478 8.06167 12.7377 7.8535 12.9175 7.6745C13.0973 7.4955 13.3051 7.406 13.5408 7.406H16.0218C16.2591 7.406 16.4673 7.49592 16.6463 7.67575C16.8253 7.85558 16.9148 8.06333 16.9148 8.299V12.3168C16.9148 12.5541 16.8248 12.7623 16.645 12.9413C16.4652 13.1203 16.2574 13.2098 16.0218 13.2098H13.5408ZM13.9338 11.918H15.6288V8.70375H13.9338V11.918ZM4.93925 11.918H7.25925C7.43975 11.918 7.592 11.9797 7.716 12.103C7.84017 12.2265 7.90225 12.3801 7.90225 12.5638C7.90225 12.7474 7.84017 12.901 7.716 13.0245C7.592 13.148 7.43975 13.2098 7.25925 13.2098H4.52825C4.29092 13.2098 4.08275 13.1198 3.90375 12.94C3.72475 12.7602 3.63525 12.5524 3.63525 12.3168V10.6053C3.63525 10.3669 3.72517 10.1583 3.905 9.97925C4.08483 9.80025 4.29258 9.71075 4.52825 9.71075H6.59825V8.69775H4.27975C4.09425 8.69775 3.9405 8.63525 3.8185 8.51025C3.69633 8.38525 3.63525 8.23125 3.63525 8.04825C3.63525 7.86542 3.69775 7.71267 3.82275 7.59C3.94758 7.46733 4.10142 7.406 4.28425 7.406H7.00925C7.24658 7.406 7.45475 7.49592 7.63375 7.67575C7.81275 7.85558 7.90225 8.06333 7.90225 8.299V10.012C7.90225 10.2533 7.81233 10.4625 7.6325 10.6395C7.45267 10.8165 7.24492 10.905 7.00925 10.905H4.93925V11.918ZM1.70925 18.55C1.24758 18.55 0.847333 18.3805 0.5085 18.0415C0.1695 17.7027 0 17.3024 0 16.8408V3.775C0 3.31333 0.1695 2.91308 0.5085 2.57425C0.847333 2.23525 1.24758 2.06575 1.70925 2.06575H5.28575V0.81575C5.28575 0.584584 5.36508 0.390833 5.52375 0.2345C5.68225 0.0781668 5.87733 0 6.109 0C6.34067 0 6.53433 0.0781668 6.69 0.2345C6.8455 0.390833 6.92325 0.584584 6.92325 0.81575V2.06575H13.6268V0.81575C13.6268 0.58725 13.706 0.394167 13.8645 0.236501C14.023 0.0788339 14.2187 0 14.4515 0C14.6845 0 14.8792 0.0781668 15.0355 0.2345C15.1918 0.390833 15.27 0.584584 15.27 0.81575V2.06575H18.8408C19.3024 2.06575 19.7027 2.23525 20.0415 2.57425C20.3805 2.91308 20.55 3.31333 20.55 3.775V16.8408C20.55 17.3024 20.3805 17.7027 20.0415 18.0415C19.7027 18.3805 19.3024 18.55 18.8408 18.55H1.70925ZM1.8875 16.6625H9.54825V15.7875C9.54825 15.5815 9.61817 15.4089 9.758 15.2698C9.89767 15.1304 10.071 15.0608 10.278 15.0608C10.4848 15.0608 10.6572 15.1304 10.795 15.2698C10.9328 15.4089 11.0018 15.5815 11.0018 15.7875V16.6625H18.6625V3.95925H11.0018V4.83425C11.0018 5.04025 10.9318 5.21283 10.792 5.352C10.6523 5.49117 10.479 5.56075 10.272 5.56075C10.0652 5.56075 9.89283 5.49117 9.755 5.352C9.61717 5.21283 9.54825 5.04025 9.54825 4.83425V3.95925H1.8875V16.6625ZM10.2738 9.26575C10.0459 9.26575 9.85617 9.1885 9.7045 9.034C9.553 8.87967 9.47725 8.68858 9.47725 8.46075C9.47725 8.23292 9.55342 8.04317 9.70575 7.8915C9.85825 7.74 10.0484 7.66425 10.2763 7.66425C10.5041 7.66425 10.6948 7.74042 10.8483 7.89275C11.0019 8.04525 11.0788 8.23542 11.0788 8.46325C11.0788 8.69108 11.0015 8.88175 10.847 9.03525C10.6927 9.18892 10.5016 9.26575 10.2738 9.26575ZM10.2738 12.9518C10.0459 12.9518 9.85617 12.8745 9.7045 12.72C9.553 12.5655 9.47725 12.3743 9.47725 12.1465C9.47725 11.9188 9.55342 11.7292 9.70575 11.5775C9.85825 11.4258 10.0484 11.35 10.2763 11.35C10.5041 11.35 10.6948 11.4263 10.8483 11.5788C11.0019 11.7313 11.0788 11.9213 11.0788 12.149C11.0788 12.3768 11.0015 12.5676 10.847 12.7213C10.6927 12.8749 10.5016 12.9518 10.2738 12.9518Z" fill="white"/>
</svg>
